<?xml version="1.0" standalone="no"?><!DOCTYPE svg PUBLIC "-//W3C//DTD SVG 1.1//EN" "http://www.w3.org/Graphics/SVG/1.1/DTD/svg11.dtd"><svg t="1637227948275" class="icon" viewBox="0 0 1060 1024" version="1.1" xmlns="http://www.w3.org/2000/svg" p-id="23276" xmlns:xlink="http://www.w3.org/1999/xlink" width="132.5" height="128"><defs><style type="text/css"></style></defs><path d="M208.724 0.649h613.262c136.285 0 204.421 68.136 204.421 204.42v613.263c0 136.284-68.136 204.42-204.42 204.42H208.723c-136.284 0-204.42-68.136-204.42-204.42V205.07C4.304 68.785 72.44 0.649 208.724 0.649z m0 0" fill="#45AFA4" p-id="23277"></path><path d="M821.986 0.649H537.59C289.687 61.099 89.084 242.675 4.304 483.34v334.99c0 112.904 91.53 204.421 204.42 204.421h613.262c112.903 0 204.421-91.517 204.421-204.42V205.069C1026.407 92.18 934.89 0.65 821.987 0.65z m0 0" fill="#45AFA4" p-id="23278"></path><path d="M821.986 0.649h-3.83C600.273 47.76 414.43 188.887 310.548 386.12c-103.895 197.222-115.161 430.314-30.78 636.631h542.23c112.904 0 204.422-91.517 204.422-204.42V205.069C1026.407 92.18 934.89 0.65 821.986 0.65z m0 0" fill="#45AFA4" p-id="23279"></path><path d="M500.533 720.463a750.763 750.763 0 0 0 63.12 302.29h258.333c112.903 0 204.421-91.518 204.421-204.421V205.069c0-67.437-33.276-130.545-88.922-168.65-266.456 123.447-436.977 390.39-436.952 684.044z m0 0" fill="#45AFA4" p-id="23280"></path><path d="M508.456 166.74h13.8c110.731 0 166.09 55.36 166.09 166.092v67.2c0 110.733-55.371 166.093-166.09 166.093h-13.8c-110.732 0-166.092-55.373-166.092-166.092v-67.2c0-110.733 55.36-166.092 166.092-166.092z m0 0" fill="#FFFFFF" p-id="23281"></path><path d="M454.543 592.7h121.375c47.437 0 92.94 18.84 126.478 52.39a178.833 178.833 0 0 1 52.39 126.478v8.435a25.556 25.556 0 0 1-25.552 25.552H301.228a25.556 25.556 0 0 1-25.553-25.552v-8.435c0-47.437 18.853-92.94 52.39-126.477a178.886 178.886 0 0 1 126.478-52.39z m0 0" fill="#45AFA4" p-id="23282"></path><path d="M732.328 780.003v-8.435c0-98.791-80.09-178.868-178.868-178.868h-57.494a178.855 178.855 0 0 0-126.477 52.39 178.833 178.833 0 0 0-52.39 126.478v8.435a25.556 25.556 0 0 0 25.564 25.552h364.112a25.556 25.556 0 0 0 25.553-25.552z m0 0" fill="#FFFFFF" p-id="23283"></path><path d="M415.952 333.094h1.535c12.776 0 19.164 6.389 19.164 19.165v28.11c0 12.777-6.388 19.165-19.164 19.165h-1.535c-12.776 0-19.164-6.388-19.164-19.165v-28.11c0-12.776 6.388-19.165 19.164-19.165z m82.535 0h1.534c12.777 0 19.165 6.389 19.165 19.165v28.11c0 12.777-6.388 19.165-19.165 19.165h-1.534c-12.777 0-19.165-6.388-19.165-19.165v-28.11c0-12.776 6.388-19.165 19.165-19.165z m0 0" fill="#45AFA4" p-id="23284"></path></svg>