<?xml version="1.0" standalone="no"?><!DOCTYPE svg PUBLIC "-//W3C//DTD SVG 1.1//EN" "http://www.w3.org/Graphics/SVG/1.1/DTD/svg11.dtd"><svg t="1637227883559" class="icon" viewBox="0 0 1024 1024" version="1.1" xmlns="http://www.w3.org/2000/svg" p-id="18567" xmlns:xlink="http://www.w3.org/1999/xlink" width="128" height="128"><defs><style type="text/css"></style></defs><path d="M1023.953953 861.981769c0 89.474725-72.539413 162.017208-162.006975 162.017208H162.028465c-89.467562 0-162.006975-72.543506-162.006976-162.017208V162.018231c0-89.474725 72.539413-162.018231 162.006976-162.018231h699.919536c89.467562 0 162.006975 72.54453 162.006975 162.018231v699.963538z" fill="#077CB0" p-id="18568"></path><path d="M212.849748 273.008476h610.556349v120.234571H212.849748zM817.168172 436.576979H219.087673c-3.431063 0-6.237925 3.085194-6.237925 6.855987v332.110155c0 3.768746 2.805838 6.852917 6.234855 6.852917h598.083569c3.431063 0 6.237925-3.085194 6.237925-6.855987V443.432966c0-3.770793-2.806862-6.855987-6.237925-6.855987zM454.335009 704.916221c0 3.770793-2.806862 6.855987-6.237925 6.855987H271.123592c-3.431063 0-6.237925-3.085194-6.237925-6.855987V598.076406c0-3.76977 2.806862-6.853941 6.236901-6.85394h176.976563c3.43004 0 6.236902 3.084171 6.236902 6.85394v106.839815z" fill="#FFFFFF" p-id="18569"></path></svg>