<?xml version="1.0" standalone="no"?><!DOCTYPE svg PUBLIC "-//W3C//DTD SVG 1.1//EN" "http://www.w3.org/Graphics/SVG/1.1/DTD/svg11.dtd"><svg t="1637228057725" class="icon" viewBox="0 0 1024 1024" version="1.1" xmlns="http://www.w3.org/2000/svg" p-id="27920" xmlns:xlink="http://www.w3.org/1999/xlink" width="128" height="128"><defs><style type="text/css"></style></defs><path d="M921.6 1024H102.4c-58.026667 0-102.4-44.373333-102.4-102.4V102.4c0-58.026667 44.373333-102.4 102.4-102.4h819.2c58.026667 0 102.4 44.373333 102.4 102.4v819.2c0 58.026667-44.373333 102.4-102.4 102.4z" fill="#5883FF" p-id="27921"></path><path d="M836.266667 491.52v273.066667c0 47.786667-37.546667 85.333333-85.333334 85.333333H273.066667c-47.786667 0-85.333333-37.546667-85.333334-85.333333v-273.066667H136.533333v307.2c0 58.026667 44.373333 102.4 102.4 102.4h546.133334c58.026667 0 102.4-44.373333 102.4-102.4v-307.2h-51.2z" fill="#FFFFFF" p-id="27922"></path><path d="M512 139.946667l-143.36 245.76H477.866667v351.573333h68.266666V385.706667h109.226667z" fill="#FFFFFF" p-id="27923"></path></svg>