<?xml version="1.0" standalone="no"?><!DOCTYPE svg PUBLIC "-//W3C//DTD SVG 1.1//EN" "http://www.w3.org/Graphics/SVG/1.1/DTD/svg11.dtd"><svg t="1637227841732" class="icon" viewBox="0 0 1024 1024" version="1.1" xmlns="http://www.w3.org/2000/svg" p-id="15744" xmlns:xlink="http://www.w3.org/1999/xlink" width="128" height="128"><defs><style type="text/css"></style></defs><path d="M893.866667 1021.866667H128c-70.4 0-128-57.6-128-128V130.133333c0-70.4 57.6-128 128-128h765.866667c70.4 0 128 57.6 128 128V896c0 68.266667-57.6 125.866667-128 125.866667z" fill="#48C0D2" p-id="15745"></path><path d="M522.666667 177.066667c81.066667 0 147.2 66.133333 147.2 147.2s-66.133333 147.2-147.2 147.2-147.2-66.133333-147.2-147.2 66.133333-147.2 147.2-147.2m0-61.866667c-115.2 0-209.066667 93.866667-209.066667 209.066667s93.866667 209.066667 209.066667 209.066666 209.066667-93.866667 209.066666-209.066666-93.866667-209.066667-209.066666-209.066667z" fill="#FFFFFF" p-id="15746"></path><path d="M168.533333 921.6c-17.066667 0-29.866667-12.8-29.866666-29.866667 0-228.266667 174.933333-416 390.4-416 100.266667 0 196.266667 40.533333 270.933333 115.2 10.666667 12.8 12.8 32 0 42.666667-10.666667 12.8-29.866667 12.8-40.533333 0-61.866667-64-142.933333-98.133333-230.4-98.133333-183.466667 0-332.8 157.866667-332.8 354.133333 0 17.066667-12.8 32-27.733334 32z" fill="#FFFFFF" p-id="15747"></path><path d="M652.8 689.066667h209.066667c17.066667 0 32 14.933333 32 32s-14.933333 32-32 32h-209.066667c-17.066667 0-32-14.933333-32-32s14.933333-32 32-32zM652.8 825.6h209.066667c17.066667 0 32 14.933333 32 32s-14.933333 32-32 32h-209.066667c-17.066667 0-32-14.933333-32-32s14.933333-32 32-32z" fill="#FFFFFF" p-id="15748"></path></svg>